<?xml version="1.0" standalone="no"?>
<!DOCTYPE svg PUBLIC "-//W3C//DTD SVG 20010904//EN"
 "http://www.w3.org/TR/2001/REC-SVG-20010904/DTD/svg10.dtd">
<svg version="1.0" xmlns="http://www.w3.org/2000/svg"
 width="500.000000pt" height="500.000000pt" viewBox="0 0 500.000000 500.000000"
 preserveAspectRatio="xMidYMid meet">
<metadata>
Created by potrace 1.14, written by Peter Selinger 2001-2017
</metadata>
<g transform="translate(0.000000,500.000000) scale(0.100000,-0.100000)"
fill="#000000" stroke="none">
<path d="M2094 4394 c-17 -8 -36 -25 -42 -37 -16 -34 -25 -61 -24 -69 1 -5 -3
-8 -9 -8 -5 0 -7 -5 -3 -11 3 -6 2 -14 -4 -18 -7 -4 -13 -16 -15 -26 -2 -11
-9 -33 -16 -50 -6 -16 -19 -50 -28 -75 -10 -25 -22 -48 -27 -52 -6 -4 -8 -8
-4 -8 9 0 -29 -108 -45 -127 -5 -7 -7 -13 -3 -13 4 0 0 -13 -9 -29 -8 -17 -16
-38 -18 -48 -4 -17 -8 -28 -38 -98 -7 -16 -13 -35 -15 -41 -6 -31 -16 -54 -24
-54 -5 0 -7 -9 -5 -20 2 -11 0 -20 -6 -20 -5 0 -8 -3 -7 -7 1 -5 -4 -21 -11
-38 -7 -16 -14 -37 -16 -45 -4 -14 -58 -154 -76 -195 -13 -30 -32 -79 -35 -90
-1 -5 -8 -23 -15 -40 -6 -16 -13 -34 -15 -40 -10 -33 -56 -153 -64 -167 -6
-10 -10 -25 -10 -33 0 -8 -4 -15 -10 -15 -5 0 -7 -7 -4 -15 4 -8 1 -15 -6 -15
-6 0 -9 -4 -6 -8 3 -5 0 -19 -7 -33 -7 -13 -21 -49 -31 -79 -11 -30 -25 -64
-33 -75 -11 -17 -13 -17 -14 -2 -2 19 -1 17 -18 77 -7 25 -16 50 -19 55 -7 11
-50 131 -56 157 -3 10 -11 32 -19 50 -18 40 -61 159 -63 174 -1 6 -9 27 -17
45 -8 19 -21 52 -27 74 -7 22 -16 44 -21 50 -5 5 -9 17 -9 27 0 10 -5 18 -11
18 -6 0 -9 7 -5 15 4 10 -1 15 -14 15 -20 0 -44 43 -70 125 -7 22 -17 46 -23
53 -5 6 -6 12 -1 12 4 0 3 5 -4 12 -7 7 -12 21 -12 32 0 12 -7 29 -15 40 -13
17 -37 18 -448 18 -239 0 -439 -2 -445 -6 -6 -3 5 -42 27 -98 20 -51 43 -113
51 -138 8 -25 17 -47 20 -50 3 -3 13 -27 22 -55 23 -67 125 -335 139 -360 5
-12 11 -27 13 -35 1 -8 7 -24 13 -35 6 -11 12 -23 12 -27 2 -11 11 -39 24 -73
7 -16 11 -33 9 -37 -1 -5 2 -8 8 -8 6 0 9 -3 8 -7 -1 -5 4 -21 11 -38 6 -16
21 -53 32 -81 11 -29 21 -58 23 -65 1 -8 9 -30 18 -49 9 -19 26 -62 38 -95 12
-33 26 -69 30 -80 27 -67 70 -182 72 -195 2 -8 6 -17 10 -20 4 -3 9 -15 11
-25 2 -11 10 -33 17 -50 7 -16 14 -32 15 -35 5 -16 18 -49 31 -80 8 -19 15
-38 15 -42 0 -4 11 -32 24 -63 14 -30 25 -57 25 -60 0 -3 7 -22 16 -43 8 -20
17 -45 19 -55 2 -9 7 -23 12 -30 4 -6 8 -14 9 -17 0 -3 4 -13 7 -23 4 -9 10
-25 14 -35 3 -9 5 -23 4 -30 -1 -6 2 -12 7 -12 6 0 17 -24 26 -52 10 -29 26
-72 37 -95 10 -24 19 -50 19 -58 0 -8 4 -15 8 -15 5 0 9 -6 9 -13 0 -10 44
-132 76 -207 6 -14 11 -27 11 -30 2 -8 57 -153 68 -180 6 -14 14 -34 18 -45 4
-11 17 -44 29 -74 12 -29 21 -60 21 -67 0 -8 5 -14 12 -14 6 0 9 -3 5 -6 -8
-8 28 -90 50 -113 10 -10 27 -23 38 -28 28 -15 100 -9 129 11 33 21 39 20 53
-9 6 -14 7 -22 2 -19 -5 3 -1 -9 11 -28 11 -18 20 -41 20 -51 0 -23 47 -42 66
-26 18 15 30 41 94 214 29 77 56 149 61 160 12 27 26 68 28 78 0 4 7 20 15 36
9 16 12 31 9 35 -4 3 -1 6 6 6 6 0 11 6 9 13 -3 17 12 57 22 57 4 0 11 16 15
36 3 20 10 44 15 53 24 45 78 190 73 195 -4 3 -1 6 5 6 7 0 11 3 10 7 -1 5 4
24 11 43 8 19 15 38 16 43 1 4 4 9 5 12 1 3 3 9 4 14 0 5 4 13 9 17 4 4 7 16
7 26 0 10 5 18 10 18 6 0 9 3 9 8 -1 4 -1 9 1 12 1 3 4 16 6 30 2 13 9 27 15
31 6 3 9 8 8 10 -2 2 5 27 15 54 22 62 26 74 25 81 0 4 3 10 8 13 7 5 29 55
37 86 2 6 8 24 15 40 6 17 19 50 28 75 10 25 21 48 26 51 5 3 8 9 7 13 -1 4 1
17 5 29 4 12 8 27 10 32 5 16 76 197 92 234 8 18 17 41 18 50 2 9 4 17 5 19 2
1 4 5 5 10 1 4 8 23 16 42 7 19 12 38 11 43 -1 4 2 7 8 7 5 0 10 7 10 16 0 9
6 30 14 47 22 50 66 164 97 252 15 44 31 79 35 78 4 -1 25 -48 47 -105 21 -57
64 -168 95 -248 31 -80 57 -149 59 -155 1 -5 39 -104 84 -220 45 -115 82 -214
84 -220 2 -12 12 -35 33 -85 8 -19 16 -42 18 -50 2 -8 7 -23 13 -35 9 -20 22
-53 26 -67 2 -5 4 -10 5 -13 1 -3 3 -8 4 -12 2 -5 8 -20 14 -35 31 -72 36 -84
39 -101 1 -10 12 -35 23 -56 10 -21 16 -41 13 -45 -4 -3 -1 -6 6 -6 7 0 10 -4
7 -9 -3 -5 2 -24 11 -42 10 -19 18 -39 19 -46 2 -12 134 -361 159 -418 7 -16
21 -55 31 -85 10 -30 21 -57 24 -60 3 -3 6 -9 7 -15 11 -50 51 -136 75 -159
42 -40 112 -45 163 -10 l36 24 11 -28 c6 -15 12 -34 14 -42 15 -77 63 -117 95
-82 17 18 55 104 61 137 1 11 9 26 16 33 7 8 10 18 7 23 -4 5 -2 9 3 9 5 0 9
6 9 13 0 12 53 152 85 227 6 14 12 30 13 35 2 6 12 31 23 56 11 24 24 57 27
72 4 15 11 30 16 33 5 3 7 10 4 15 -4 5 -1 9 4 9 6 0 10 3 10 8 -1 4 0 10 1
15 1 4 3 10 4 15 1 7 20 57 41 107 6 17 17 44 23 60 5 17 14 39 18 50 4 11 8
22 8 25 5 18 41 107 48 116 4 6 5 14 1 17 -3 4 -1 7 6 7 7 0 10 4 7 9 -3 4 3
27 14 49 11 23 20 47 20 55 0 7 5 18 10 23 6 6 12 19 14 30 4 19 26 74 52 131
8 17 14 38 14 46 0 9 4 18 9 21 5 3 11 16 15 29 3 13 13 41 22 63 10 21 19 48
21 58 2 11 7 24 12 30 9 11 30 73 32 91 0 6 7 17 14 25 7 8 14 18 15 22 4 36
14 68 20 68 4 0 11 15 15 33 10 43 9 39 24 65 7 13 14 31 16 40 5 24 29 86 35
92 3 3 7 12 9 20 13 46 27 80 34 80 5 0 5 4 2 10 -3 5 2 21 11 35 9 14 14 25
11 25 -3 0 5 25 19 55 13 31 24 62 24 70 0 8 5 15 11 15 5 0 8 4 5 8 -3 5 1
21 9 35 8 15 14 29 14 30 0 3 17 49 52 135 16 41 29 80 29 88 0 8 5 14 11 14
6 0 9 6 6 13 -2 6 3 28 13 47 10 19 27 62 39 95 12 33 29 75 37 94 8 18 13 36
10 38 -3 3 -46 5 -95 5 l-90 0 15 37 c9 20 22 54 30 76 8 22 18 49 23 60 12
26 24 58 25 67 1 3 4 10 9 14 4 4 7 14 7 23 0 14 -43 16 -426 14 -234 -1 -428
-4 -431 -7 -4 -3 -12 -1 -19 5 -9 8 -17 -1 -33 -37 -12 -25 -21 -52 -21 -59 0
-6 -3 -15 -7 -19 -5 -4 -9 -12 -9 -17 -1 -5 -3 -11 -4 -14 -1 -3 -3 -8 -5 -12
-1 -5 -5 -15 -8 -23 -29 -70 -57 -153 -59 -177 -1 -7 -5 -13 -9 -13 -5 0 -13
-19 -20 -42 -6 -24 -16 -49 -21 -55 -6 -7 -8 -13 -5 -13 4 0 -3 -21 -14 -47
-11 -27 -30 -75 -41 -108 -11 -33 -25 -65 -30 -71 -5 -7 -8 -16 -7 -20 1 -5
-3 -22 -10 -39 -7 -16 -25 -64 -40 -105 -15 -41 -32 -84 -36 -95 -4 -11 -10
-28 -12 -38 -1 -10 -9 -30 -16 -43 -13 -25 -14 -24 -25 27 -7 28 -18 65 -26
83 -7 17 -28 72 -45 121 -18 50 -36 99 -41 110 -29 67 -104 273 -105 288 0 4
-7 12 -15 17 -8 5 -12 10 -8 10 8 0 -40 140 -54 155 -4 5 -8 17 -8 26 0 9 -7
29 -14 45 -8 15 -13 31 -10 36 3 4 1 8 -4 8 -5 0 -12 10 -15 23 -8 39 -42 122
-52 129 -5 4 -7 8 -2 8 4 0 1 13 -8 30 -8 16 -15 31 -14 32 0 2 -4 16 -10 31
-6 16 -11 34 -11 42 0 7 -3 15 -7 17 -9 3 -42 88 -51 127 -2 12 -20 38 -38 57
-19 18 -34 40 -34 48 0 8 -4 17 -8 20 -5 3 -17 32 -27 66 -10 33 -23 60 -28
60 -6 0 -7 3 -4 6 12 12 -27 64 -59 79 -48 22 -714 22 -760 -1z m216 -157 c0
-5 5 -5 11 -2 18 12 69 12 70 1 0 -6 3 -5 6 2 2 6 9 9 15 6 12 -8 88 -11 88
-4 0 3 17 5 38 4 20 -1 37 -3 37 -4 0 -1 12 -3 28 -4 15 -1 27 1 27 4 0 7 59
5 66 -3 4 -3 14 -2 24 3 24 13 43 -5 64 -58 9 -23 16 -46 16 -50 0 -4 -102 -7
-226 -7 -124 0 -230 -3 -235 -6 -10 -6 -59 -126 -59 -146 0 -7 -4 -13 -10 -13
-5 0 -9 -3 -8 -7 2 -5 -6 -30 -16 -58 -40 -110 -98 -261 -107 -280 -5 -11 -11
-31 -14 -44 -2 -12 -8 -28 -13 -35 -5 -6 -19 -40 -31 -76 -12 -36 -29 -78 -36
-95 -20 -46 -57 -148 -58 -162 0 -7 -4 -13 -9 -13 -4 0 -8 -7 -8 -16 0 -8 -5
-25 -12 -37 -7 -12 -13 -30 -15 -40 -2 -10 -10 -31 -18 -47 -8 -16 -15 -36
-15 -45 0 -8 -5 -15 -12 -15 -6 0 -9 -3 -5 -6 3 -4 -1 -23 -9 -43 -33 -76 -62
-160 -56 -165 3 -3 0 -6 -7 -6 -7 0 -9 -4 -6 -10 3 -5 1 -10 -5 -10 -6 0 -9
-3 -7 -8 3 -4 -3 -25 -14 -46 -10 -22 -17 -41 -15 -43 2 -2 -7 -25 -20 -50
-13 -26 -21 -50 -18 -55 3 -4 0 -8 -5 -8 -6 0 -10 -3 -9 -7 2 -5 -2 -21 -9
-38 -6 -16 -23 -61 -38 -100 -14 -38 -30 -78 -35 -87 -6 -10 -10 -23 -10 -30
-1 -7 -9 -30 -19 -52 -15 -31 -19 -35 -24 -20 -3 11 -16 44 -27 74 -12 30 -23
62 -25 70 -2 8 -4 16 -5 18 -2 1 -3 5 -5 10 -1 4 -7 20 -13 35 -9 22 -9 35 2
62 8 18 12 36 8 39 -3 3 0 6 6 6 7 0 11 3 10 8 0 4 2 16 7 27 20 49 69 181 71
188 1 4 3 9 4 12 1 3 3 8 5 13 4 14 26 67 36 87 5 12 11 27 13 35 2 8 9 29 16
45 7 17 12 34 11 39 -1 4 4 15 11 23 6 8 13 24 15 36 2 11 8 26 13 32 5 7 7
15 3 18 -3 4 -1 7 5 7 7 0 11 3 10 8 -2 10 14 66 21 72 5 4 22 46 45 115 13
37 19 60 15 61 -2 0 4 8 14 18 9 10 15 22 12 27 -4 5 -2 9 2 9 5 0 9 9 10 19
1 10 10 39 21 63 11 23 36 88 56 142 21 55 41 107 47 117 5 10 10 29 11 43 1
15 6 26 10 26 6 0 18 26 24 53 1 4 3 9 4 12 1 3 3 8 4 13 1 4 10 24 19 46 9
21 14 42 11 47 -3 5 -2 9 3 9 10 0 33 49 33 70 0 9 3 20 8 24 4 4 7 11 8 14 0
4 7 23 16 42 8 19 20 51 26 70 12 35 12 35 72 35 33 0 60 -4 60 -8z m1927
-671 c55 -1 93 3 94 9 0 7 2 7 5 0 2 -6 55 -9 138 -7 l134 3 -5 -23 c-2 -13
-7 -30 -10 -38 -4 -8 -5 -18 -5 -22 1 -5 -2 -8 -8 -8 -5 0 -10 -7 -10 -15 0
-14 -22 -16 -170 -13 l-170 3 -12 -30 c-7 -16 -12 -33 -10 -37 1 -5 -2 -8 -6
-8 -5 0 -9 -6 -9 -12 0 -7 -15 -51 -32 -98 -34 -91 -39 -106 -43 -118 -1 -4
-7 -18 -14 -31 -7 -14 -11 -28 -8 -33 3 -4 0 -8 -6 -8 -6 0 -10 -6 -8 -12 3
-20 -12 -58 -23 -58 -6 0 -8 -3 -6 -7 3 -5 0 -19 -6 -33 -5 -14 -11 -29 -12
-35 -1 -11 -11 -35 -31 -82 -8 -17 -14 -35 -14 -40 0 -7 -37 -108 -65 -178 -5
-11 -9 -22 -10 -25 -1 -3 -5 -12 -8 -20 -8 -18 -65 -174 -78 -215 -6 -16 -14
-37 -18 -45 -4 -8 -16 -41 -26 -73 -11 -31 -24 -56 -30 -53 -5 2 -9 9 -8 15 2
6 -2 11 -7 11 -5 0 -9 3 -8 8 1 4 -4 23 -11 42 -8 19 -15 43 -17 53 -2 10 -11
31 -19 47 -19 37 -19 68 0 113 8 19 11 37 8 41 -4 3 0 6 7 6 7 0 10 3 7 7 -4
3 -2 12 4 20 6 7 9 13 5 13 -4 0 3 18 14 40 11 22 19 43 19 47 -1 5 6 26 16
48 10 22 18 46 18 53 0 6 5 12 10 12 6 0 8 3 4 6 -3 3 4 27 15 52 11 26 21 54
23 62 8 37 10 45 16 50 4 3 20 43 37 90 17 47 39 109 50 138 11 29 21 56 23
60 3 11 10 32 40 110 15 39 24 72 21 72 -4 0 -1 4 6 9 7 4 14 18 15 29 1 12 6
22 11 22 5 0 6 3 3 7 -4 3 -2 12 4 20 6 7 8 13 4 13 -4 0 -2 7 5 15 7 8 9 15
4 16 -5 0 5 7 21 14 17 7 34 11 39 7 5 -3 51 -6 103 -6z m-3367 0 c0 -1 9 -26
20 -56 11 -30 20 -56 20 -57 0 -1 -69 -2 -152 -2 -84 1 -157 0 -163 -1 -5 -1
-14 -1 -20 0 -5 1 -43 2 -83 3 -71 2 -73 1 -69 -20 3 -16 -1 -23 -12 -23 -11
0 -22 20 -35 61 -10 33 -25 66 -32 74 -11 10 -11 14 -1 18 11 4 527 7 527 3z
m-436 -182 c21 -20 22 -62 2 -45 -12 10 -29 61 -20 61 1 0 10 -7 18 -16z m41
-102 c-3 -3 -11 0 -18 7 -9 10 -8 11 6 5 10 -3 15 -9 12 -12z m2231 -154 c9
-29 26 -73 37 -98 12 -25 22 -54 24 -65 2 -11 8 -32 14 -47 6 -15 9 -33 6 -40
-3 -9 -7 -6 -12 7 -5 11 -13 26 -19 34 -5 7 -11 18 -12 25 -1 7 -11 32 -22 56
-32 71 -61 162 -55 177 8 21 20 6 39 -49z m-2168 -17 c4 -28 -13 -20 -21 9 -3
14 -1 20 6 17 7 -2 14 -14 15 -26z m37 -79 c6 -35 -12 -35 -24 0 -6 17 -11 36
-11 42 0 17 30 -19 35 -42z m19 -55 c16 -16 29 -67 17 -67 -13 0 -29 22 -36
53 -8 29 -1 34 19 14z m60 -163 c9 -23 7 -36 -3 -30 -12 8 -21 46 -11 46 4 0
11 -7 14 -16z m2166 -4 c0 -5 -4 -10 -10 -10 -5 0 -10 5 -10 10 0 6 5 10 10
10 6 0 10 -4 10 -10z m24 -63 c7 -7 11 -17 9 -23 -2 -7 3 -19 12 -28 9 -9 14
-16 10 -16 -3 0 -1 -9 5 -20 8 -16 8 -20 -4 -20 -13 0 -25 25 -46 93 -9 30 -5
34 14 14z m-2139 -67 c4 -17 11 -30 16 -30 5 0 9 -9 9 -20 0 -11 -7 -20 -15
-20 -10 0 -15 10 -15 28 0 15 -7 37 -15 48 -8 12 -12 24 -8 27 10 11 21 -2 28
-33z m56 -114 c0 -6 2 -21 5 -33 5 -28 -11 -30 -26 -4 -16 30 -13 61 5 55 8
-4 15 -11 16 -18z m2152 -2 c-8 -21 -23 -17 -23 6 0 13 5 18 14 14 8 -3 12
-12 9 -20z m-2121 -104 c1 -9 -1 -17 -7 -18 -5 -1 -11 10 -13 25 -4 29 13 23
20 -7z m2158 16 c0 -8 3 -23 6 -33 4 -13 0 -11 -15 7 -25 30 -26 40 -6 40 8 0
15 -6 15 -14z m23 -71 c4 -8 2 -17 -3 -20 -6 -4 -10 3 -10 14 0 25 6 27 13 6z
m43 -100 c0 -29 0 -30 -20 -9 -21 21 -20 34 2 34 13 0 18 -8 18 -25z m-2171 5
c3 -5 1 -10 -4 -10 -6 0 -11 5 -11 10 0 6 2 10 4 10 3 0 8 -4 11 -10z m2194
-67 c9 -19 9 -23 -2 -23 -15 0 -29 34 -19 44 6 7 6 7 21 -21z m9 -45 c-2 -3 5
-15 15 -26 11 -12 14 -22 8 -26 -11 -7 -16 -1 -31 38 -7 20 -7 27 1 24 6 -2 9
-6 7 -10z m47 -98 c-3 -5 -1 -10 4 -10 6 0 11 -9 11 -20 0 -22 -15 -27 -27 -7
-11 17 -10 31 2 39 14 11 17 10 10 -2z m105 -274 c0 -3 -4 -8 -10 -11 -5 -3
-10 -1 -10 4 0 6 5 11 10 11 6 0 10 -2 10 -4z m95 -245 c7 -12 -12 -24 -25
-16 -11 7 -4 25 10 25 5 0 11 -4 15 -9z m48 -156 c-7 -21 -13 -19 -13 6 0 11
4 18 10 14 5 -3 7 -12 3 -20z m-2113 -94 c0 -5 3 -16 6 -25 4 -10 1 -16 -9
-16 -14 0 -27 20 -27 41 0 5 7 9 15 9 8 0 15 -4 15 -9z m43 -110 c9 -27 17
-54 17 -60 0 -20 -15 -11 -33 19 -10 17 -15 30 -11 30 5 0 3 5 -4 12 -16 16
-15 48 1 48 7 0 20 -22 30 -49z m2180 -56 c5 -29 -10 -33 -28 -8 -16 22 -8 58
10 43 7 -6 15 -22 18 -35z m38 -96 c25 -63 32 -83 35 -94 1 -5 9 -27 18 -47
16 -37 11 -53 -12 -39 -6 4 -24 41 -38 82 -15 40 -30 78 -35 84 -5 5 -9 22 -9
38 0 41 21 29 41 -24z m-2165 19 c5 -13 7 -26 6 -30 -1 -5 3 -8 8 -8 6 0 10
-6 9 -12 -1 -7 5 -29 14 -48 8 -19 13 -38 11 -42 -3 -5 -1 -8 4 -8 15 0 29
-71 23 -114 0 -5 -7 -3 -15 4 -8 6 -12 18 -9 26 3 8 0 14 -6 14 -6 0 -10 3 -9
8 0 4 -2 15 -5 25 -4 9 -10 25 -14 35 -3 9 -7 19 -8 22 -1 3 -9 22 -18 43 -26
60 -32 107 -14 107 9 0 19 -10 23 -22z m2237 -249 c-5 -16 -8 -18 -14 -7 -13
20 -11 38 5 32 8 -3 12 -13 9 -25z"/>
</g>
</svg>
